<!-- Generated by IcoMoon.io -->
<svg version="1.1" xmlns="http://www.w3.org/2000/svg" width="32" height="32" viewBox="0 0 32 32">
<title>ps4</title>
<path fill="#fff" d="M32 16c0 8.837-7.163 16-16 16s-16-7.163-16-16c0-8.837 7.163-16 16-16s16 7.163 16 16z"></path>
<path fill="#dc7000" d="M10.538 13.411h-4.030v1.144h4.030c0.315 0 0.572 0.257 0.572 0.572s-0.257 0.572-0.572 0.572h-2.314c-0.946 0-1.716 0.77-1.716 1.716v1.716h1.144v-1.716c0-0.315 0.257-0.572 0.572-0.572h2.314c0.946 0 1.716-0.77 1.716-1.716s-0.77-1.716-1.716-1.716z"></path>
<path fill="#dc7000" d="M16.557 13.411c-0.946 0-1.716 0.77-1.716 1.716v2.288c0 0.315-0.257 0.572-0.572 0.572h-2.587v1.144h2.587c0.946 0 1.716-0.77 1.716-1.716v-2.288c0-0.315 0.257-0.572 0.572-0.572h2.587v-1.144h-2.587z"></path>
<path fill="#dc7000" d="M24.89 16.843v-2.288c0-0.631-0.513-1.144-1.144-1.144-0.217 0-0.428 0.061-0.611 0.176l-3.623 2.288c-0.334 0.211-0.534 0.573-0.534 0.968 0 0.631 0.513 1.144 1.144 1.144h3.623v1.144h1.144v-1.144h1.144v-1.144l-1.144-0zM23.746 16.843l-3.622-0 3.622-2.288v2.288z"></path>
</svg>
