<!-- Generated by IcoMoon.io -->
<svg version="1.1" xmlns="http://www.w3.org/2000/svg" width="32" height="32" viewBox="0 0 32 32">
<title>twitter</title>
<path fill="#fff" d="M24.775 13.935c0 4.846-3.928 8.774-8.774 8.774s-8.774-3.928-8.774-8.774c0-4.846 3.928-8.774 8.774-8.774s8.774 3.928 8.774 8.774z"></path>
<path fill="#000" d="M19.097 12.113c-0.25 0.109-0.515 0.182-0.793 0.217 0.285-0.17 0.503-0.438 0.605-0.76-0.266 0.159-0.559 0.271-0.872 0.333-0.252-0.269-0.612-0.435-1.005-0.435-0.762 0-1.375 0.618-1.375 1.376 0 0.109 0.009 0.214 0.032 0.314-1.144-0.056-2.155-0.604-2.835-1.439-0.119 0.206-0.188 0.442-0.188 0.695 0 0.476 0.245 0.899 0.611 1.143-0.221-0.004-0.438-0.068-0.622-0.169 0 0.004 0 0.010 0 0.015 0 0.668 0.477 1.224 1.102 1.352-0.112 0.031-0.234 0.045-0.361 0.045-0.088 0-0.177-0.005-0.26-0.023 0.178 0.545 0.684 0.945 1.285 0.958-0.468 0.366-1.062 0.587-1.706 0.587-0.113 0-0.221-0.005-0.329-0.019 0.609 0.393 1.331 0.617 2.11 0.617 2.531 0 3.915-2.097 3.915-3.914 0-0.061-0.002-0.12-0.005-0.178 0.273-0.194 0.502-0.436 0.689-0.714z"></path>
</svg>
