<!-- Generated by IcoMoon.io -->
<svg version="1.1" xmlns="http://www.w3.org/2000/svg" width="32" height="32" viewBox="0 0 32 32">
<title>location</title>
<path fill="#ffecec" d="M16 0.286c8.679 0 15.714 7.036 15.714 15.714s-7.036 15.714-15.714 15.714c-8.679 0-15.714-7.036-15.714-15.714s7.036-15.714 15.714-15.714z"></path>
<path fill="#dc7000" d="M20 14.286c0-0.525-0.104-1.045-0.304-1.531s-0.496-0.926-0.867-1.298c-0.371-0.371-0.812-0.666-1.298-0.867s-1.005-0.304-1.531-0.304-1.045 0.104-1.531 0.304c-0.485 0.201-0.926 0.496-1.298 0.867s-0.666 0.812-0.867 1.298c-0.201 0.485-0.304 1.005-0.304 1.531 0 0.793 0.234 1.53 0.631 2.151h-0.005c1.349 2.111 3.373 5.277 3.373 5.277l3.373-5.277h-0.004c0.412-0.642 0.631-1.389 0.631-2.151zM16 16c-0.455 0-0.891-0.181-1.212-0.502s-0.502-0.758-0.502-1.212c0-0.455 0.181-0.891 0.502-1.212s0.758-0.502 1.212-0.502c0.455 0 0.891 0.181 1.212 0.502s0.502 0.758 0.502 1.212c0 0.455-0.181 0.891-0.502 1.212s-0.758 0.502-1.212 0.502z"></path>
</svg>
