<!-- Generated by IcoMoon.io -->
<svg version="1.1" xmlns="http://www.w3.org/2000/svg" width="32" height="32" viewBox="0 0 32 32">
<title>phone</title>
<path fill="#fff" d="M10.747 13.172c1.097-1.097 1.097-2.881 0-3.977l-3.857-3.857c-0.59-0.59-1.408-0.889-2.243-0.82-0.819 0.067-1.56 0.485-2.033 1.146-0.098 0.137-0.193 0.276-0.286 0.417l7.755 7.755 0.663-0.663z"></path>
<path fill="#fff" d="M26.662 25.109l-3.857-3.857c-1.096-1.096-2.881-1.097-3.977 0l-0.663 0.663 7.756 7.755c0.14-0.093 0.279-0.188 0.416-0.286 0.661-0.473 1.078-1.214 1.146-2.033 0.069-0.835-0.23-1.653-0.82-2.243z"></path>
<path fill="#fff" d="M15.513 23.402c-0.751 0-1.457-0.292-1.989-0.824l-4.103-4.102c-0.531-0.531-0.824-1.238-0.824-1.989 0-0.427 0.095-0.839 0.274-1.213l-7.5-7.5c-1.055 2.215-1.522 4.697-1.329 7.188 0.26 3.357 1.707 6.51 4.076 8.879l4.040 4.040c2.369 2.369 5.522 3.817 8.879 4.076 0.367 0.028 0.733 0.042 1.099 0.042 2.117 0 4.2-0.472 6.089-1.372l-7.5-7.5c-0.374 0.179-0.786 0.273-1.213 0.273z"></path>
<path fill="#fff" d="M18.875 0c-0.518 0-0.938 0.42-0.938 0.938s0.42 0.938 0.938 0.938c6.203 0 11.25 5.047 11.25 11.25 0 0.518 0.42 0.938 0.938 0.938s0.938-0.42 0.938-0.938c0-7.237-5.888-13.125-13.125-13.125z"></path>
<path fill="#fff" d="M18.875 13.124c0 0 0 0 0 0.001 0 0.518 0.42 0.938 0.938 0.938s0.938-0.42 0.938-0.938c0-1.034-0.841-1.875-1.875-1.875-0.518 0-0.938 0.419-0.938 0.937s0.42 0.937 0.937 0.937z"></path>
<path fill="#fff" d="M18.875 9.375c2.068 0 3.75 1.682 3.75 3.75 0 0.518 0.42 0.938 0.938 0.938s0.938-0.42 0.938-0.938c0-3.102-2.523-5.625-5.625-5.625-0.518 0-0.938 0.42-0.938 0.938s0.42 0.938 0.938 0.938z"></path>
<path fill="#fff" d="M18.875 3.75c-0.518 0-0.938 0.42-0.938 0.938s0.42 0.938 0.938 0.938c4.135 0 7.5 3.364 7.5 7.5 0 0.518 0.42 0.938 0.938 0.938s0.938-0.42 0.938-0.938c0-5.169-4.206-9.375-9.375-9.375z"></path>
</svg>
