<!-- Generated by IcoMoon.io -->
<svg version="1.1" xmlns="http://www.w3.org/2000/svg" width="32" height="32" viewBox="0 0 32 32">
<title>right-btn</title>
<path fill="#dc7000" d="M22.486 12.973c0 3.582-2.904 6.486-6.486 6.486s-6.486-2.904-6.486-6.486c0-3.582 2.904-6.487 6.486-6.487s6.486 2.904 6.486 6.487z"></path>
<path fill="none" stroke="#dc7000" stroke-linejoin="miter" stroke-linecap="butt" stroke-miterlimit="4" stroke-width="0.4324" d="M22.27 12.973c0 3.463-2.807 6.27-6.27 6.27s-6.27-2.807-6.27-6.27c0-3.463 2.807-6.27 6.27-6.27s6.27 2.807 6.27 6.27z"></path>
<path fill="#fff" d="M14.108 12.703h3.205l-0.981-1.178c-0.046-0.055-0.068-0.126-0.061-0.198s0.041-0.137 0.096-0.183c0.055-0.046 0.126-0.068 0.198-0.061s0.137 0.041 0.183 0.097l1.351 1.622c0.009 0.013 0.017 0.026 0.024 0.041 0 0.014 0 0.022 0.019 0.035 0.012 0.031 0.019 0.064 0.019 0.097s-0.007 0.066-0.019 0.097c0 0.014 0 0.022-0.019 0.035-0.007 0.014-0.015 0.028-0.024 0.041l-1.351 1.622c-0.025 0.030-0.057 0.055-0.093 0.072s-0.075 0.025-0.115 0.025c-0.063 0-0.124-0.022-0.173-0.062-0.027-0.023-0.050-0.051-0.067-0.082s-0.027-0.066-0.030-0.101c-0.003-0.035 0-0.071 0.011-0.105s0.028-0.065 0.050-0.093l0.981-1.178h-3.205c-0.072 0-0.14-0.028-0.191-0.079s-0.079-0.119-0.079-0.191c0-0.072 0.028-0.14 0.079-0.191s0.119-0.079 0.191-0.079z"></path>
</svg>
