<!-- Generated by IcoMoon.io -->
<svg version="1.1" xmlns="http://www.w3.org/2000/svg" width="32" height="32" viewBox="0 0 32 32">
<title>smartphone</title>
<path fill="#fff" d="M32 16c0 8.837-7.163 16-16 16s-16-7.163-16-16c0-8.837 7.163-16 16-16s16 7.163 16 16z"></path>
<path fill="#dc7000" d="M19.074 8.678h-6.148c-0.593 0-1.075 0.482-1.075 1.075v12.494c0 0.593 0.482 1.075 1.075 1.075h6.148c0.593 0 1.075-0.483 1.075-1.075v-12.494c0-0.593-0.483-1.075-1.075-1.075zM12.339 10.63h7.322v9.275h-7.322v-9.275zM12.926 9.166h6.148c0.324 0 0.587 0.263 0.587 0.587v0.389h-7.322v-0.389c0-0.324 0.263-0.587 0.587-0.587zM19.074 22.834h-6.148c-0.324 0-0.587-0.263-0.587-0.587v-1.854h7.322v1.854c0 0.324-0.263 0.587-0.587 0.587z"></path>
<path fill="#dc7000" d="M16 20.637c-0.538 0-0.976 0.438-0.976 0.976s0.438 0.976 0.976 0.976c0.538 0 0.976-0.438 0.976-0.976s-0.438-0.976-0.976-0.976zM16 22.102c-0.269 0-0.488-0.219-0.488-0.488s0.219-0.488 0.488-0.488c0.269 0 0.488 0.219 0.488 0.488s-0.219 0.488-0.488 0.488z"></path>
<path fill="#dc7000" d="M15.024 9.898h0.976c0.135 0 0.244-0.109 0.244-0.244s-0.109-0.244-0.244-0.244h-0.976c-0.135 0-0.244 0.109-0.244 0.244s0.109 0.244 0.244 0.244z"></path>
<path fill="#dc7000" d="M16.732 9.898h0.244c0.135 0 0.244-0.109 0.244-0.244s-0.109-0.244-0.244-0.244h-0.244c-0.135 0-0.244 0.109-0.244 0.244s0.109 0.244 0.244 0.244z"></path>
<path fill="#dc7000" d="M22.495 9.793c-0.095-0.095-0.25-0.095-0.345 0s-0.095 0.25 0 0.345c0.912 0.912 0.912 2.396 0 3.308-0.095 0.095-0.095 0.25 0 0.345 0.048 0.048 0.11 0.072 0.173 0.072s0.125-0.024 0.173-0.072c1.102-1.102 1.102-2.896 0-3.998z"></path>
<path fill="#dc7000" d="M21.467 10.349c-0.095-0.095-0.25-0.095-0.345 0s-0.095 0.25 0 0.345c0.302 0.302 0.468 0.704 0.468 1.132s-0.166 0.83-0.468 1.132c-0.095 0.095-0.095 0.25 0 0.345 0.048 0.048 0.11 0.072 0.173 0.072s0.125-0.024 0.173-0.072c0.394-0.394 0.611-0.919 0.611-1.477s-0.217-1.083-0.611-1.477z"></path>
<path fill="#dc7000" d="M9.85 10.138c0.095-0.095 0.095-0.25 0-0.345s-0.25-0.095-0.345 0c-1.102 1.102-1.102 2.896 0 3.998 0.048 0.048 0.11 0.072 0.173 0.072s0.125-0.024 0.173-0.072c0.095-0.095 0.095-0.25 0-0.345-0.912-0.912-0.912-2.396 0-3.308z"></path>
<path fill="#dc7000" d="M10.878 10.281c-0.095-0.095-0.25-0.095-0.345 0-0.394 0.394-0.611 0.919-0.611 1.477s0.217 1.083 0.611 1.477c0.048 0.048 0.11 0.072 0.173 0.072s0.125-0.024 0.173-0.072c0.095-0.095 0.095-0.25 0-0.345-0.302-0.302-0.468-0.704-0.468-1.132s0.166-0.83 0.468-1.132c0.095-0.095 0.095-0.25 0-0.345z"></path>
</svg>
