<!-- Generated by IcoMoon.io -->
<svg version="1.1" xmlns="http://www.w3.org/2000/svg" width="32" height="32" viewBox="0 0 32 32">
<title>d-cube</title>
<path fill="#fff" d="M32 16c0 8.837-7.163 16-16 16s-16-7.163-16-16c0-8.837 7.163-16 16-16s16 7.163 16 16z"></path>
<path fill="#dc7000" d="M23.312 20.898l-0.326-1.215c-0.042-0.158-0.205-0.252-0.363-0.21s-0.252 0.205-0.21 0.363l0.143 0.532-2.081-1.187v-4.934c0-0.106-0.057-0.204-0.149-0.257l-4.301-2.473v-2.35l0.384 0.383c0.116 0.116 0.304 0.116 0.419 0s0.116-0.304 0-0.42l-0.89-0.89c-0.116-0.116-0.306-0.114-0.419 0l-0.89 0.89c-0.116 0.116-0.116 0.304 0 0.42s0.304 0.116 0.42 0l0.383-0.383v2.35l-4.272 2.472c-0.092 0.053-0.148 0.151-0.148 0.257v4.887l-2.111 1.199 0.143-0.533c0.042-0.158-0.052-0.321-0.21-0.363s-0.321 0.051-0.363 0.21l-0.326 1.216c-0.041 0.154 0.051 0.325 0.219 0.366l1.207 0.323c0.159 0.043 0.321-0.053 0.363-0.21 0.042-0.158-0.052-0.321-0.21-0.363l-0.515-0.138 2.095-1.19 4.292 2.527c0.092 0.054 0.206 0.055 0.299 0.001l1.088-0.627c0.142-0.082 0.191-0.263 0.109-0.405s-0.263-0.191-0.405-0.109l-0.938 0.541-3.849-2.267 3.81-2.165 3.884 2.215-0.594 0.343c-0.142 0.082-0.191 0.263-0.109 0.405s0.263 0.191 0.405 0.109l0.895-0.516 2.058 1.174-0.515 0.138c-0.158 0.042-0.252 0.205-0.21 0.363s0.204 0.252 0.363 0.21l1.189-0.319c0.17-0.030 0.282-0.201 0.236-0.37zM19.881 18.843l-3.856-2.2v-4.442l3.856 2.217v4.424zM11.605 14.418l3.826-2.215v4.419l-3.826 2.174v-4.378z"></path>
<path fill="#dc7000" d="M17.983 20.91c0.164 0 0.297-0.133 0.297-0.297s-0.133-0.297-0.297-0.297c-0.164 0-0.297 0.133-0.297 0.297s0.133 0.297 0.297 0.297z"></path>
</svg>
