<!-- Generated by IcoMoon.io -->
<svg version="1.1" xmlns="http://www.w3.org/2000/svg" width="32" height="32" viewBox="0 0 32 32">
<title>left-btn</title>
<path fill="none" stroke="#dc7000" stroke-linejoin="miter" stroke-linecap="butt" stroke-miterlimit="4" stroke-width="1.0667" d="M31.467 16c0 8.542-6.925 15.467-15.467 15.467s-15.467-6.925-15.467-15.467c0-8.542 6.925-15.467 15.467-15.467s15.467 6.925 15.467 15.467z"></path>
<path fill="#dc7000" d="M20.667 15.333h-7.907l2.42-2.907c0.113-0.136 0.168-0.312 0.151-0.488s-0.102-0.339-0.238-0.452-0.312-0.168-0.488-0.151c-0.176 0.016-0.339 0.102-0.452 0.238l-3.333 4c-0.022 0.032-0.043 0.065-0.060 0.1 0 0.033 0 0.053-0.047 0.087-0.030 0.076-0.046 0.158-0.047 0.24 0.001 0.082 0.016 0.164 0.047 0.24 0 0.033 0 0.053 0.047 0.087 0.018 0.035 0.038 0.068 0.060 0.1l3.333 4c0.063 0.075 0.141 0.136 0.23 0.177s0.185 0.063 0.283 0.063c0.156 0 0.307-0.054 0.427-0.153 0.068-0.056 0.123-0.125 0.164-0.202s0.066-0.162 0.074-0.25c0.008-0.087-0.001-0.175-0.027-0.259s-0.068-0.162-0.124-0.229l-2.42-2.907h7.907c0.177 0 0.346-0.070 0.471-0.195s0.195-0.295 0.195-0.471-0.070-0.346-0.195-0.471c-0.125-0.125-0.295-0.195-0.471-0.195z"></path>
</svg>
