<!-- Generated by IcoMoon.io -->
<svg version="1.1" xmlns="http://www.w3.org/2000/svg" width="32" height="32" viewBox="0 0 32 32">
<title>linkedin</title>
<path fill="#fff" d="M24.775 13.935c0 4.846-3.928 8.774-8.774 8.774s-8.774-3.928-8.774-8.774c0-4.846 3.928-8.774 8.774-8.774s8.774 3.928 8.774 8.774z"></path>
<path fill="#000" d="M18.58 16.516v-0h0.001v-2.082c0-1.019-0.219-1.803-1.41-1.803-0.573 0-0.957 0.314-1.113 0.612h-0.017v-0.517h-1.129v3.79h1.176v-1.877c0-0.494 0.094-0.972 0.706-0.972 0.603 0 0.612 0.564 0.612 1.004v1.845h1.175z"></path>
<path fill="#000" d="M12.997 12.726h1.177v3.79h-1.177v-3.79z"></path>
<path fill="#000" d="M13.585 10.839c-0.376 0-0.682 0.305-0.682 0.682s0.305 0.688 0.682 0.688c0.376 0 0.682-0.312 0.682-0.688s-0.306-0.682-0.682-0.682v0z"></path>
</svg>
