<!-- Generated by IcoMoon.io -->
<svg version="1.1" xmlns="http://www.w3.org/2000/svg" width="32" height="32" viewBox="0 0 32 32">
<title>logo_logo</title>
<path fill="#fff" d="M2.523 18.26h2.54v1.74h-4.814v-8.178h2.274v6.438zM9.868 20.081c-0.766 0-1.469-0.178-2.111-0.534-0.642-0.363-1.152-0.862-1.531-1.496-0.371-0.642-0.557-1.365-0.557-2.169s0.186-1.523 0.557-2.158c0.379-0.642 0.889-1.141 1.531-1.496s1.346-0.534 2.111-0.534c0.773 0 1.477 0.178 2.111 0.534 0.642 0.356 1.148 0.855 1.52 1.496 0.371 0.634 0.557 1.353 0.557 2.158s-0.186 1.527-0.557 2.169c-0.371 0.634-0.878 1.133-1.52 1.496-0.642 0.356-1.346 0.534-2.111 0.534zM9.868 17.97c0.58 0 1.036-0.189 1.369-0.568 0.34-0.379 0.51-0.885 0.51-1.52 0-0.65-0.17-1.16-0.51-1.531-0.333-0.379-0.789-0.568-1.369-0.568-0.588 0-1.048 0.189-1.38 0.568-0.333 0.371-0.499 0.882-0.499 1.531 0 0.642 0.166 1.152 0.499 1.531 0.333 0.371 0.793 0.557 1.38 0.557zM20.298 14.513c-0.131-0.217-0.313-0.383-0.545-0.499-0.224-0.116-0.491-0.174-0.8-0.174-0.572 0-1.025 0.186-1.357 0.557-0.325 0.371-0.487 0.87-0.487 1.496 0 0.704 0.174 1.241 0.522 1.612 0.356 0.363 0.87 0.545 1.543 0.545 0.797 0 1.365-0.36 1.705-1.079h-2.285v-1.636h4.246v2.204c-0.178 0.433-0.441 0.839-0.789 1.218-0.34 0.379-0.773 0.692-1.299 0.94-0.526 0.24-1.125 0.36-1.798 0.36-0.82 0-1.547-0.174-2.181-0.522-0.626-0.356-1.114-0.847-1.462-1.473-0.34-0.634-0.51-1.357-0.51-2.169 0-0.804 0.17-1.52 0.51-2.146 0.348-0.634 0.835-1.125 1.462-1.473 0.626-0.356 1.349-0.534 2.169-0.534 1.029 0 1.879 0.247 2.552 0.742s1.090 1.172 1.253 2.030h-2.448zM27.778 20.081c-0.766 0-1.469-0.178-2.111-0.534-0.642-0.363-1.152-0.862-1.531-1.496-0.371-0.642-0.557-1.365-0.557-2.169s0.186-1.523 0.557-2.158c0.379-0.642 0.889-1.141 1.531-1.496s1.346-0.534 2.111-0.534c0.773 0 1.477 0.178 2.111 0.534 0.642 0.356 1.148 0.855 1.52 1.496 0.371 0.634 0.557 1.353 0.557 2.158s-0.186 1.527-0.557 2.169c-0.371 0.634-0.878 1.133-1.52 1.496-0.642 0.356-1.346 0.534-2.111 0.534zM27.778 17.97c0.58 0 1.036-0.189 1.369-0.568 0.34-0.379 0.51-0.885 0.51-1.52 0-0.65-0.17-1.16-0.51-1.531-0.333-0.379-0.789-0.568-1.369-0.568-0.588 0-1.048 0.189-1.38 0.568-0.333 0.371-0.499 0.882-0.499 1.531 0 0.642 0.166 1.152 0.499 1.531 0.333 0.371 0.793 0.557 1.38 0.557z"></path>
</svg>
