<!-- Generated by IcoMoon.io -->
<svg version="1.1" xmlns="http://www.w3.org/2000/svg" width="32" height="32" viewBox="0 0 32 32">
<title>pc</title>
<path fill="#fff" d="M32 16c0 8.837-7.163 16-16 16s-16-7.163-16-16c0-8.837 7.163-16 16-16s16 7.163 16 16z"></path>
<path fill="#dc7000" d="M9.446 14.427c0.070 0 0.137-0.027 0.186-0.076l1.049-1.049c0.103-0.103 0.103-0.269 0-0.372s-0.269-0.103-0.372 0l-1.049 1.049c-0.050 0.049-0.078 0.116-0.078 0.186s0.028 0.137 0.078 0.186c0.049 0.049 0.116 0.076 0.186 0.076z"></path>
<path fill="#dc7000" d="M9.446 16c0.070 0 0.137-0.027 0.186-0.076l2.621-2.622c0.103-0.103 0.103-0.269 0-0.372s-0.269-0.103-0.372 0l-2.621 2.621c-0.050 0.049-0.078 0.116-0.078 0.186s0.028 0.137 0.078 0.186c0.049 0.049 0.116 0.076 0.186 0.076z"></path>
<path fill="#dc7000" d="M23.078 8.136h-6.816c-0.434 0-0.786 0.352-0.786 0.786v2.884h-6.029c-0.724 0-1.311 0.587-1.311 1.311v6.816c0 0.724 0.587 1.311 1.311 1.311h2.884v1.049h-0.786c-0.434 0-0.786 0.352-0.786 0.786s0.352 0.786 0.786 0.786h11.534c0.434 0 0.786-0.352 0.786-0.786v-14.156c0-0.434-0.352-0.786-0.786-0.786zM9.446 12.33h9.437c0.434 0 0.786 0.352 0.786 0.786v6.291h-11.010v-6.291c0-0.434 0.352-0.786 0.786-0.786zM8.66 19.932h11.010c0 0.434-0.352 0.786-0.786 0.786h-9.437c-0.434 0-0.786-0.352-0.786-0.786zM12.854 21.243h2.621v1.049h-2.622v-1.049zM16.262 23.34h-4.719c-0.145 0-0.262-0.117-0.262-0.262s0.117-0.262 0.262-0.262h5.243c0.145 0 0.262 0.117 0.262 0.262s-0.117 0.262-0.262 0.262h-0.524zM23.34 23.078c0 0.145-0.117 0.262-0.262 0.262h-5.552c0.085-0.24 0.048-0.507-0.099-0.715s-0.386-0.333-0.641-0.333h-0.786v-1.049h2.884c0.724 0 1.311-0.587 1.311-1.311v-6.816c0-0.724-0.587-1.311-1.311-1.311h-2.884v-2.884c0-0.145 0.117-0.262 0.262-0.262h6.816c0.145 0 0.262 0.117 0.262 0.262v14.156z"></path>
<path fill="#dc7000" d="M22.291 9.446h-5.243c-0.29 0-0.524 0.235-0.524 0.524v0.524c0 0.29 0.235 0.524 0.524 0.524h5.243c0.29 0 0.524-0.235 0.524-0.524v-0.524c0-0.29-0.235-0.524-0.524-0.524zM17.049 10.495v-0.524h5.243v0.524h-5.243z"></path>
<path fill="#dc7000" d="M21.767 13.379c0.434 0 0.786-0.352 0.786-0.786s-0.352-0.786-0.786-0.786c-0.434 0-0.786 0.352-0.786 0.786s0.352 0.786 0.786 0.786zM21.767 12.33c0.145 0 0.262 0.117 0.262 0.262s-0.117 0.262-0.262 0.262c-0.145 0-0.262-0.117-0.262-0.262s0.117-0.262 0.262-0.262z"></path>
<path fill="#dc7000" d="M22.554 14.689c0-0.434-0.352-0.786-0.786-0.786s-0.786 0.352-0.786 0.786c0 0.434 0.352 0.786 0.786 0.786s0.786-0.352 0.786-0.786zM21.767 14.951c-0.145 0-0.262-0.117-0.262-0.262s0.117-0.262 0.262-0.262c0.145 0 0.262 0.117 0.262 0.262s-0.117 0.262-0.262 0.262z"></path>
<path fill="#dc7000" d="M18.359 21.767c-0.145 0-0.262 0.117-0.262 0.262v0.524c0 0.145 0.117 0.262 0.262 0.262s0.262-0.117 0.262-0.262v-0.524c0-0.145-0.117-0.262-0.262-0.262z"></path>
<path fill="#dc7000" d="M19.408 21.767c-0.145 0-0.262 0.117-0.262 0.262v0.524c0 0.145 0.117 0.262 0.262 0.262s0.262-0.117 0.262-0.262v-0.524c0-0.145-0.117-0.262-0.262-0.262z"></path>
<path fill="#dc7000" d="M20.457 21.767c-0.145 0-0.262 0.117-0.262 0.262v0.524c0 0.145 0.117 0.262 0.262 0.262s0.262-0.117 0.262-0.262v-0.524c0-0.145-0.117-0.262-0.262-0.262z"></path>
<path fill="#dc7000" d="M21.505 21.767c-0.145 0-0.262 0.117-0.262 0.262v0.524c0 0.145 0.117 0.262 0.262 0.262s0.262-0.117 0.262-0.262v-0.524c0-0.145-0.117-0.262-0.262-0.262z"></path>
<path fill="#dc7000" d="M22.554 21.767c-0.145 0-0.262 0.117-0.262 0.262v0.524c0 0.145 0.117 0.262 0.262 0.262s0.262-0.117 0.262-0.262v-0.524c0-0.145-0.117-0.262-0.262-0.262z"></path>
</svg>
