<!-- Generated by IcoMoon.io -->
<svg version="1.1" xmlns="http://www.w3.org/2000/svg" width="32" height="32" viewBox="0 0 32 32">
<title>server</title>
<path fill="#ffecec" d="M16 0.286c8.679 0 15.714 7.036 15.714 15.714s-7.036 15.714-15.714 15.714c-8.679 0-15.714-7.036-15.714-15.714s7.036-15.714 15.714-15.714z"></path>
<path fill="#dc7000" d="M20.571 10.857h-9.143c-0.303 0-0.594 0.12-0.808 0.335s-0.335 0.505-0.335 0.808v2.286c0 0.303 0.12 0.594 0.335 0.808s0.505 0.335 0.808 0.335h9.143c0.303 0 0.594-0.12 0.808-0.335s0.335-0.505 0.335-0.808v-2.286c0-0.303-0.12-0.594-0.335-0.808s-0.505-0.335-0.808-0.335zM17.714 13.143c0 0.316-0.256 0.571-0.571 0.571s-0.571-0.256-0.571-0.571c0-0.316 0.256-0.571 0.571-0.571s0.571 0.256 0.571 0.571zM20 13.143c0 0.316-0.256 0.571-0.571 0.571s-0.571-0.256-0.571-0.571c0-0.316 0.256-0.571 0.571-0.571s0.571 0.256 0.571 0.571zM20.571 16.571h-9.143c-0.303 0-0.594 0.12-0.808 0.335s-0.335 0.505-0.335 0.808v2.286c0 0.303 0.12 0.594 0.335 0.808s0.505 0.335 0.808 0.335h9.143c0.303 0 0.594-0.12 0.808-0.335s0.335-0.505 0.335-0.808v-2.286c0-0.303-0.12-0.594-0.335-0.808s-0.505-0.335-0.808-0.335zM17.714 18.857c0 0.316-0.256 0.571-0.571 0.571s-0.571-0.256-0.571-0.571c0-0.316 0.256-0.571 0.571-0.571s0.571 0.256 0.571 0.571zM20 18.857c0 0.316-0.256 0.571-0.571 0.571s-0.571-0.256-0.571-0.571c0-0.316 0.256-0.571 0.571-0.571s0.571 0.256 0.571 0.571z"></path>
</svg>
