<!-- Generated by IcoMoon.io -->
<svg version="1.1" xmlns="http://www.w3.org/2000/svg" width="32" height="32" viewBox="0 0 32 32">
<title>user</title>
<path fill="#ffecec" d="M16 0.286c8.679 0 15.714 7.036 15.714 15.714s-7.036 15.714-15.714 15.714c-8.679 0-15.714-7.036-15.714-15.714s7.036-15.714 15.714-15.714z"></path>
<path fill="#dc7000" d="M16 15.314c0.546 0 1.069-0.217 1.455-0.603s0.602-0.909 0.602-1.455c0-0.546-0.217-1.069-0.602-1.455s-0.909-0.602-1.455-0.602c-0.546 0-1.069 0.217-1.455 0.602s-0.602 0.909-0.602 1.455 0.217 1.069 0.602 1.455c0.386 0.386 0.909 0.602 1.455 0.602zM13.085 21.486c-1.041 0-1.918-0.875-1.52-1.837 0.241-0.582 0.595-1.112 1.040-1.557s0.975-0.799 1.557-1.041c0.582-0.241 1.207-0.365 1.837-0.365s1.254 0.124 1.837 0.365c0.582 0.241 1.112 0.595 1.557 1.041s0.799 0.975 1.041 1.557c0.398 0.962-0.479 1.837-1.52 1.837h-5.83z"></path>
</svg>
