<!-- Generated by IcoMoon.io -->
<svg version="1.1" xmlns="http://www.w3.org/2000/svg" width="32" height="32" viewBox="0 0 32 32">
<title>desktop</title>
<path fill="#fff" d="M32 16c0 8.837-7.163 16-16 16s-16-7.163-16-16c0-8.837 7.163-16 16-16s16 7.163 16 16z"></path>
<path fill="#dc7000" d="M22.508 8.949h-12.475c-1.048 0.001-1.897 0.85-1.898 1.898v10.847c0.001 1.048 0.85 1.897 1.898 1.898h12.475c1.048-0.001 1.897-0.85 1.898-1.898v-10.847c-0.001-1.048-0.85-1.897-1.898-1.898zM23.864 21.695c-0.001 0.748-0.607 1.355-1.356 1.356h-12.475c-0.748-0.001-1.355-0.607-1.356-1.356v-10.847c0.001-0.748 0.607-1.355 1.356-1.356h12.475c0.748 0.001 1.355 0.607 1.356 1.356v10.847z"></path>
<path fill="#dc7000" d="M22.508 11.119h-12.475c-0.449 0-0.814 0.364-0.814 0.814v9.763c0 0.449 0.364 0.814 0.814 0.814h12.475c0.449 0 0.814-0.364 0.814-0.814v-9.763c0-0.449-0.364-0.814-0.814-0.814zM16.271 16.505l-2.954-1.59 2.954-1.59 2.954 1.59-2.953 1.59zM19.525 15.369v3.18l-2.983 1.607v-3.18l2.983-1.607zM16 16.976v3.18l-2.983-1.607v-3.18l2.983 1.607zM9.763 11.932c0-0.15 0.121-0.271 0.271-0.271h5.966v1.193l-3.383 1.822c-0.004 0.002-0.008 0.003-0.011 0.005-0.082 0.049-0.132 0.138-0.132 0.234v2.273l-2.712 1.356v-6.612zM22.78 21.695c0 0.15-0.121 0.271-0.271 0.271h-12.475c-0.15 0-0.271-0.121-0.271-0.271v-2.544l2.712-1.356v0.917c0 0.1 0.055 0.191 0.143 0.239l3.525 1.898c0.080 0.043 0.177 0.043 0.257 0l3.525-1.898c0.088-0.047 0.143-0.139 0.143-0.239v-0.917l2.712 1.356v2.544zM22.78 18.544l-2.712-1.356v-2.273c-0-0.095-0.050-0.184-0.132-0.233-0.004-0.002-0.008-0.003-0.011-0.005l-3.382-1.823v-1.193h5.966c0.15 0 0.271 0.121 0.271 0.271v6.612z"></path>
<path fill="#dc7000" d="M9.763 10.576c0.15 0 0.271-0.121 0.271-0.271s-0.121-0.271-0.271-0.271c-0.15 0-0.271 0.121-0.271 0.271s0.121 0.271 0.271 0.271z"></path>
<path fill="#dc7000" d="M10.847 10.576c0.15 0 0.271-0.121 0.271-0.271s-0.121-0.271-0.271-0.271c-0.15 0-0.271 0.121-0.271 0.271s0.121 0.271 0.271 0.271z"></path>
<path fill="#dc7000" d="M11.932 10.576c0.15 0 0.271-0.121 0.271-0.271s-0.121-0.271-0.271-0.271c-0.15 0-0.271 0.121-0.271 0.271s0.121 0.271 0.271 0.271z"></path>
<path fill="#dc7000" d="M18.712 10.576h3.797c0.15 0 0.271-0.121 0.271-0.271s-0.121-0.271-0.271-0.271h-3.797c-0.15 0-0.271 0.121-0.271 0.271s0.121 0.271 0.271 0.271z"></path>
</svg>
