<!-- Generated by IcoMoon.io -->
<svg version="1.1" xmlns="http://www.w3.org/2000/svg" width="32" height="32" viewBox="0 0 32 32">
<title>vr</title>
<path fill="#fff" d="M32 16c0 8.837-7.163 16-16 16s-16-7.163-16-16c0-8.837 7.163-16 16-16s16 7.163 16 16z"></path>
<path fill="#dc7000" d="M17.018 20.138c-0.83 0.277-1.746 0.277-2.578-0-0.233-0.078-0.485 0.049-0.563 0.282s0.049 0.485 0.282 0.563c0.507 0.169 1.039 0.253 1.571 0.253s1.064-0.084 1.57-0.253c0.233-0.078 0.359-0.33 0.281-0.563s-0.33-0.359-0.563-0.281z"></path>
<path fill="#dc7000" d="M20.912 11.585c-0.189-1.358-1.356-2.43-2.8-2.43h-0.508v-0.032c0-0.246-0.199-0.445-0.445-0.445h-2.859c-0.246 0-0.445 0.199-0.445 0.445v0.032h-0.508c-1.432 0-2.6 1.057-2.799 2.43-0.834 0.19-1.458 0.937-1.458 1.827v3.812c0 1.219 0.993 1.716 1.444 1.823 0.204 2.745 2.508 4.817 5.196 4.817 2.741 0 4.994-2.127 5.196-4.817 1.169-0.278 1.444-1.339 1.444-1.823v-3.812c0-0.89-0.624-1.637-1.457-1.827zM17.603 10.044h0.508c1.259 0 1.779 1.029 1.887 1.493h-2.395v-1.493zM14.744 9.568h1.969v1.969h-1.969v-1.969zM13.346 10.044h0.508v1.493h-2.393c0.289-1.209 1.384-1.493 1.885-1.493zM15.729 22.975c-2.196 0-4.073-1.664-4.298-3.876h2.194c0.546 0 1.080-0.221 1.466-0.607 0.002-0.002 0.005-0.005 0.007-0.007 0.167-0.164 0.397-0.257 0.632-0.257s0.464 0.094 0.632 0.257c0.002 0.002 0.004 0.005 0.007 0.007 0.385 0.386 0.92 0.607 1.466 0.607h2.194c-0.223 2.174-2.066 3.876-4.298 3.876zM21.479 17.224c0 0.551-0.449 0.985-0.985 0.985h-2.662c-0.308 0-0.61-0.123-0.829-0.339-0.002-0.003-0.005-0.005-0.007-0.008-0.334-0.334-0.796-0.525-1.268-0.525s-0.934 0.191-1.268 0.525c-0.002 0.002-0.005 0.005-0.007 0.007-0.219 0.216-0.521 0.339-0.829 0.339h-2.662c-0.534 0-0.985-0.432-0.985-0.985v-3.812c0-0.543 0.442-0.985 0.985-0.985h9.531c0.543 0 0.985 0.442 0.985 0.985v3.812h0z"></path>
</svg>
