<!-- Generated by IcoMoon.io -->
<svg version="1.1" xmlns="http://www.w3.org/2000/svg" width="32" height="32" viewBox="0 0 32 32">
<title>fire</title>
<path fill="#fff" d="M27.932 18.736c-0.367-4.772-2.589-7.763-4.549-10.402-1.815-2.443-3.383-4.553-3.383-7.665 0-0.25-0.14-0.478-0.362-0.593s-0.49-0.096-0.693 0.051c-2.944 2.107-5.4 5.657-6.258 9.045-0.596 2.359-0.675 5.010-0.686 6.761-2.719-0.581-3.335-4.647-3.341-4.692-0.031-0.211-0.159-0.395-0.347-0.495-0.189-0.099-0.412-0.106-0.604-0.011-0.143 0.069-3.499 1.775-3.695 8.585-0.014 0.227-0.014 0.454-0.014 0.681 0 6.616 5.383 11.999 12 11.999 0.009 0.001 0.019 0.002 0.027 0 0.003 0 0.005 0 0.008 0 6.6-0.019 11.965-5.395 11.965-11.999 0-0.333-0.068-1.264-0.068-1.264zM16 30.666c-2.206 0-4-1.911-4-4.261 0-0.080-0.001-0.161 0.005-0.26 0.027-0.991 0.215-1.667 0.421-2.117 0.387 0.831 1.078 1.594 2.201 1.594 0.368 0 0.667-0.298 0.667-0.667 0-0.949 0.020-2.044 0.256-3.032 0.21-0.876 0.713-1.808 1.35-2.556 0.283 0.97 0.835 1.755 1.374 2.521 0.771 1.096 1.569 2.23 1.709 4.162 0.008 0.115 0.017 0.23 0.017 0.354-0 2.349-1.794 4.261-4 4.261z"></path>
</svg>
