<!-- Generated by IcoMoon.io -->
<svg version="1.1" xmlns="http://www.w3.org/2000/svg" width="32" height="32" viewBox="0 0 32 32">
<title>instagram</title>
<path fill="#fff" d="M24.775 13.935c0 4.846-3.928 8.774-8.774 8.774s-8.774-3.928-8.774-8.774c0-4.846 3.928-8.774 8.774-8.774s8.774 3.928 8.774 8.774z"></path>
<path fill="#000" d="M17.797 10.323h-3.077c-1.002 0-1.816 0.815-1.816 1.816v3.077c0 1.001 0.815 1.816 1.816 1.816h3.077c1.001 0 1.816-0.815 1.816-1.816v-3.077c0-1.002-0.815-1.816-1.816-1.816v0zM19.22 15.216c0 0.785-0.638 1.423-1.423 1.423h-3.077c-0.785 0-1.423-0.638-1.423-1.423v-3.077c0-0.785 0.638-1.423 1.423-1.423h3.077c0.785 0 1.423 0.638 1.423 1.423v3.077z"></path>
<path fill="#000" d="M16.258 11.843c-1.012 0-1.835 0.823-1.835 1.835s0.823 1.835 1.835 1.835c1.012 0 1.835-0.823 1.835-1.835s-0.823-1.835-1.835-1.835zM16.258 15.119c-0.795 0-1.441-0.647-1.441-1.441s0.647-1.441 1.441-1.441c0.795 0 1.441 0.647 1.441 1.441s-0.647 1.441-1.441 1.441z"></path>
<path fill="#000" d="M18.137 11.191c-0.299 0-0.542 0.243-0.542 0.542s0.243 0.542 0.542 0.542 0.542-0.243 0.542-0.542c0-0.299-0.243-0.542-0.542-0.542zM18.137 11.882c-0.082 0-0.149-0.067-0.149-0.149s0.067-0.149 0.149-0.149c0.082 0 0.149 0.067 0.149 0.149s-0.067 0.149-0.149 0.149z"></path>
</svg>
